{"title":"Monte.Carlo.2011.BRRip.720p.x264.Feel-Free","uid":6707621,"size":2371673059,"categoryP":"video","categoryS":"hd___movies","magnet":"?xt=urn:btih:b61831f6310dc16e4cf5b4a893bc9318d725d863&amp;dn=Monte.Carlo.2011.BRRip.720p.x264.Feel-Free&amp;tr=udp%3A%2F%2Ftracker.openbittorrent.com%3A80&amp;tr=udp%3A%2F%2Fopen.demonii.com%3A1337&amp;tr=udp%3A%2F%2Ftracker.coppersurfer.tk%3A6969&amp;tr=udp%3A%2F%2Fexodus.desync.com%3A6969","seeders":0,"leechers":0,"uploader":".BONE.","files":9,"time":1317228367,"description":"Genre:Adventure | Comedy | Romance\nLanguage:English\nIMDb:http://www.imdb.com/title/tt1067774/\nSource:BluRay-CHD Thanks!\n\nFormat : MPEG-4\nFormat profile : Base Media\nCodec ID : isom\nFile size : 2.20 GiB\nDuration : 1h 48mn\nOverall bit rate : 2 900 Kbps\n\nVideo\nID : 1\nFormat : AVC\nFormat/Info : Advanced Video Codec\nFormat profile : &lt;a class=&quot;__cf_email__&quot; href=&quot;/cdn-cgi/l/email-protection&quot; data-cfemail=&quot;266e4f414e666a120817&quot;&gt;[email&amp;#160;protected]&lt;/a&gt;&lt;script data-cfhash='f9e31' type=&quot;text/javascript&quot;&gt;\n/* &lt;![CDATA[ */!function(){try{var t=&quot;currentScript&quot;in document?document.currentScript:function(){for(var t=document.getElementsByTagName(&quot;script&quot;),e=t.length;e--;)if(t[e].getAttribute(&quot;data-cfhash&quot;))return t[e]}();if(t&amp;&amp;t.previousSibling){var e,r,n,i,c=t.previousSibling,a=c.getAttribute(&quot;data-cfemail&quot;);if(a){for(e=&quot;&quot;,r=parseInt(a.substr(0,2),16),n=2;a.length-n;n+=2)i=parseInt(a.substr(n,2),16)^r,e+=String.fromCharCode(i);e=document.createTextNode(e),c.parentNode.replaceChild(e,c)}t.parentNode.removeChild(t);}}catch(u){}}()/* ]]&gt; */&lt;/script&gt;\nFormat settings, CABAC : Yes\nFormat settings, ReFrames : 3 frames\nFormat settings, GOP : N=1\nCodec ID : avc1\nCodec ID/Info : Advanced Video Coding\nDuration : 1h 48mn\nBit rate mode : Variable\nBit rate : 2 500 Kbps\nMaximum bit rate : 20.7 Mbps\nWidth : 1 280 pixels\nHeight : 688 pixels\nDisplay aspect ratio : 1.860\nFrame rate mode : Constant\nFrame rate : 23.976 fps\nColor space : YUV\nChroma subsampling : 4:2:0\nBit depth : 8 bits\nScan type : Progressive\nBits/(Pixel*Frame) : 0.118\nStream size : 1.87 GiB (85%)\nWriting library : x264\n\nAudio\nID : 2\nFormat : AAC\nFormat/Info : Advanced Audio Codec\nFormat version : Version 4\nFormat profile : LC\nFormat settings, SBR : No\nCodec ID : 40\nDuration : 1h 48mn\nBit rate mode : Variable\nBit rate : 430 Kbps\nMaximum bit rate : 554 Kbps\nChannel(s) : 6 channels\nChannel positions : Front: L C R, Side: L R, LFE\nSampling rate : 48.0 KHz\nStream size : 335 MiB (15%)\n\n\nPlot:\nThree young women vacationing in Paris find themselves whisked away to Monte Carlo after one of the girls is mistaken for a British heiress\n &lt;a href=&quot;\nhttp://www.pix2links.com/images/89343208389769366157.png&quot; rel=&quot;nofollow&quot; target=&quot;_NEW&quot;&gt;\nhttp://www.pix2links.com/images/89343208389769366157.png&lt;/a&gt;\n &lt;a href=&quot;\nhttp://www.pix2links.com/images/40876566343088458956.png&quot; rel=&quot;nofollow&quot; target=&quot;_NEW&quot;&gt;\nhttp://www.pix2links.com/images/40876566343088458956.png&lt;/a&gt;\n &lt;a href=&quot;\nhttp://www.pix2links.com/images/96636214632530389356.png&quot; rel=&quot;nofollow&quot; target=&quot;_NEW&quot;&gt;\nhttp://www.pix2links.com/images/96636214632530389356.png&lt;/a&gt;\n &lt;a href=&quot;\nhttp://www.pix2links.com/images/72597190748527716077.png&quot; rel=&quot;nofollow&quot; target=&quot;_NEW&quot;&gt;\nhttp://www.pix2links.com/images/72597190748527716077.png&lt;/a&gt;\n &lt;a href=&quot;\nhttp://www.pix2links.com/images/67173212189859325156.png&quot; rel=&quot;nofollow&quot; target=&quot;_NEW&quot;&gt;\nhttp://www.pix2links.com/images/67173212189859325156.png&lt;/a&gt;","torrent":{"xt":"urn:btih:b61831f6310dc16e4cf5b4a893bc9318d725d863","amp;dn":"Monte.Carlo.2011.BRRip.720p.x264.Feel-Free","amp;tr":["udp%3A%2F%2Ftracker.openbittorrent.com%3A80","udp%3A%2F%2Fopen.demonii.com%3A1337","udp%3A%2F%2Ftracker.coppersurfer.tk%3A6969","udp%3A%2F%2Fexodus.desync.com%3A6969"],"infoHash":"b61831f6310dc16e4cf5b4a893bc9318d725d863","infoHashBuffer":{"type":"Buffer","data":[182,24,49,246,49,13,193,110,76,245,180,168,147,188,147,24,215,37,216,99]},"announce":[],"urlList":[]}}